<svg width="15" height="15" viewBox="0 0 15 15" fill="none" xmlns="http://www.w3.org/2000/svg">
<g id="vuesax/bold/call">
<g id="call">
<path id="Vector" d="M2.03054 3.01602L2.03055 3.01602L2.03116 3.01447C2.15522 2.69914 2.35272 2.40614 2.63429 2.1405L2.63434 2.14055L2.63878 2.13618C2.97005 1.81009 3.30998 1.66889 3.65351 1.66889C3.77673 1.66889 3.89728 1.69543 4.00186 1.74562L4.00184 1.74565L4.00587 1.74751C4.11485 1.79781 4.20738 1.87076 4.28075 1.97673L4.28073 1.97674L4.28268 1.9795L5.64407 3.89835L5.64407 3.89836L5.64526 3.90002C5.74026 4.03195 5.80413 4.14679 5.84653 4.25043L5.84649 4.25045L5.84841 4.25492C5.88979 4.35146 5.90684 4.435 5.90684 4.49729C5.90684 4.57907 5.88342 4.66767 5.82639 4.76137L5.82626 4.76129L5.82159 4.76955C5.76169 4.87553 5.66847 4.99555 5.54094 5.12309L5.5409 5.12305L5.53696 5.12714L5.09268 5.58897C4.97017 5.71267 4.91514 5.86483 4.91514 6.02886C4.91514 6.1036 4.92495 6.16877 4.9415 6.23498L4.94556 6.25119L4.95142 6.26684C4.96177 6.29444 4.97216 6.31893 4.97952 6.33629C4.98024 6.33801 4.98094 6.33965 4.9816 6.34122C4.99 6.36107 4.993 6.36875 4.99474 6.37396L5.003 6.39875L5.01551 6.42168C5.135 6.64074 5.33145 6.91054 5.59484 7.22182L5.59483 7.22183L5.59696 7.22429C5.864 7.53288 6.14987 7.84857 6.46025 8.16493L6.46024 8.16494L6.46222 8.16691C6.49411 8.1988 6.5271 8.23023 6.55712 8.25881L6.5583 8.25993C6.58958 8.28973 6.61776 8.31658 6.64413 8.34296L6.64411 8.34297L6.64677 8.34556C6.76576 8.46158 6.7678 8.64935 6.65 8.76715L5.56441 9.85274C5.45179 9.96536 5.27129 9.96969 5.14881 9.85548C5.11518 9.82194 5.08194 9.79021 5.05128 9.76094L5.05024 9.75995C5.01781 9.72899 4.98816 9.70067 4.95887 9.6714C4.36487 9.07159 3.82913 8.4436 3.35136 7.78746C2.88108 7.13357 2.50575 6.48418 2.23416 5.84516C1.97036 5.20487 1.84028 4.60385 1.84028 4.03959C1.84028 3.67533 1.90449 3.33115 2.03054 3.01602Z" fill="#58DA8F" stroke="#58DA8F" stroke-width="0.586806"/>
<path id="Vector_2" d="M8.61323 9.72553C8.79456 9.72553 8.94406 9.65671 9.0605 9.54062L9.50588 9.10111L9.50588 9.10111L9.50726 9.09974C9.6421 8.9649 9.75901 8.87544 9.85801 8.82379L9.86658 8.81931L9.87485 8.81428C9.9696 8.75661 10.0524 8.73383 10.1389 8.73383C10.2074 8.73383 10.2871 8.7479 10.3858 8.78827L10.4969 8.51671L10.3858 8.78827C10.4896 8.83076 10.6055 8.89508 10.7403 8.98656L12.6801 10.3638L12.6801 10.3638L12.683 10.3658C12.796 10.444 12.8624 10.5257 12.9023 10.614C12.9489 10.732 12.9732 10.8401 12.9732 10.9578C12.9732 11.087 12.9502 11.2231 12.903 11.3559C12.8851 11.4035 12.8727 11.4357 12.8575 11.4662L12.8574 11.4662L12.8546 11.4722C12.7665 11.6588 12.6531 11.8338 12.5035 11.999C12.2525 12.2755 11.9831 12.4721 11.6854 12.6009H11.6835L11.6303 12.6225C11.3193 12.749 10.9813 12.818 10.6142 12.818C10.0621 12.818 9.46163 12.6881 8.81626 12.4131C8.16431 12.1353 7.50908 11.7598 6.85651 11.2848C6.71647 11.1807 6.57943 11.0787 6.44637 10.9753L7.95911 9.46254C8.05347 9.52529 8.14245 9.5785 8.22476 9.62162L8.23803 9.62857L8.25194 9.63413C8.25883 9.63689 8.26851 9.64121 8.28707 9.64971C8.28854 9.65038 8.29006 9.65108 8.29163 9.6518C8.30768 9.65916 8.32854 9.66873 8.35095 9.67834L8.35083 9.67863L8.36351 9.68338C8.45333 9.71706 8.53769 9.72553 8.61323 9.72553Z" fill="#58DA8F" stroke="#58DA8F" stroke-width="0.586806"/>
</g>
</g>
</svg>
