<svg width="15" height="16" viewBox="0 0 15 16" fill="none" xmlns="http://www.w3.org/2000/svg">
<g id="vuesax/outline/moneys">
<g id="moneys">
<path id="Vector" d="M3.17369 11.3073L3.16027 11.3042L3.14662 11.3024C3.04294 11.2889 2.90228 11.2502 2.74329 11.1899L2.74248 11.1896C2.39038 11.0572 2.01728 10.8325 1.73126 10.4473C1.44678 10.0642 1.2309 9.49883 1.2309 8.65346V5.6314C1.2309 4.72761 1.4897 4.055 1.93642 3.60829C2.38313 3.16157 3.05576 2.90278 3.95954 2.90278H9.11757C9.8818 2.90278 10.4816 3.08536 10.9175 3.40842C11.3501 3.72907 11.6471 4.20701 11.7756 4.84982L11.7759 4.85107C11.8239 5.08569 11.8462 5.34117 11.8462 5.6314V8.65346C11.8462 9.56398 11.5884 10.2378 11.1427 10.6841C10.6972 11.1303 10.0249 11.388 9.11757 11.388H3.95954C3.67258 11.388 3.40722 11.3603 3.17369 11.3073ZM2.84605 10.9229L2.84602 10.923L2.85331 10.9255C2.9819 10.9706 3.10766 11.0041 3.23022 11.025C3.47084 11.0752 3.70645 11.1004 3.9654 11.1004H9.12343C9.88797 11.1004 10.5125 10.9156 10.9431 10.4849C11.3738 10.0543 11.5587 9.42976 11.5587 8.66521V5.64315C11.5587 5.38351 11.5402 5.14583 11.4941 4.9217C11.3829 4.36608 11.1297 3.92413 10.711 3.62727C10.2986 3.33483 9.76033 3.20793 9.12343 3.20793H3.9654C3.20086 3.20793 2.57635 3.39279 2.14569 3.82344C1.71503 4.2541 1.53016 4.8786 1.53016 5.64315V8.66521C1.53016 9.22222 1.62782 9.70122 1.84805 10.0881C2.07173 10.4811 2.40952 10.7571 2.84605 10.9229Z" fill="white" stroke="#92ABFE" stroke-width="0.586806"/>
<path id="Vector_2" d="M4.49132 12.9509L4.48881 12.9499C3.72839 12.6654 3.22951 12.072 3.05418 11.19L3.05411 11.1897C3.0438 11.1381 3.06186 11.0891 3.0911 11.0615L3.09119 11.0616L3.09711 11.0556C3.12811 11.0246 3.17521 11.0098 3.22607 11.022L3.22605 11.0221L3.23366 11.0237C3.44891 11.0693 3.68653 11.0946 3.95176 11.0946H9.10979C9.87433 11.0946 10.4988 10.9098 10.9295 10.4791C11.3602 10.0484 11.545 9.42394 11.545 8.6594V5.63733C11.545 5.37777 11.5266 5.14017 11.4805 4.91612C11.4714 4.86951 11.4847 4.81968 11.5208 4.77975C11.5591 4.74309 11.602 4.73381 11.6409 4.74315L11.6408 4.74331L11.6506 4.74532C12.2939 4.87665 12.7724 5.1752 13.0933 5.60755C13.4165 6.04294 13.5988 6.63988 13.5988 7.39775V10.4198C13.5988 11.3272 13.3412 11.9995 12.8955 12.4451C12.4499 12.8908 11.7776 13.1484 10.8702 13.1484H5.71218C5.2398 13.1484 4.8312 13.0816 4.49132 12.9509ZM3.84614 11.388H3.34917L3.58925 11.8232C3.81226 12.2274 4.15025 12.5141 4.60123 12.6785C4.92414 12.7993 5.30083 12.855 5.71804 12.855H10.8761C11.6406 12.855 12.2651 12.6702 12.6958 12.2395C13.1264 11.8089 13.3113 11.1844 13.3113 10.4198V7.39775C13.3113 6.41048 13.0004 5.6674 12.278 5.27404L11.8443 5.03785V5.53171V5.53192V5.53212V5.53233V5.53254V5.53274V5.53295V5.53316V5.53336V5.53357V5.53377V5.53398V5.53419V5.53439V5.5346V5.53481V5.53501V5.53522V5.53542V5.53563V5.53584V5.53604V5.53625V5.53646V5.53666V5.53687V5.53708V5.53728V5.53749V5.53769V5.5379V5.53811V5.53831V5.53852V5.53873V5.53893V5.53914V5.53934V5.53955V5.53976V5.53996V5.54017V5.54038V5.54058V5.54079V5.54099V5.5412V5.54141V5.54161V5.54182V5.54203V5.54223V5.54244V5.54265V5.54285V5.54306V5.54326V5.54347V5.54368V5.54388V5.54409V5.5443V5.5445V5.54471V5.54491V5.54512V5.54533V5.54553V5.54574V5.54595V5.54615V5.54636V5.54656V5.54677V5.54698V5.54718V5.54739V5.5476V5.5478V5.54801V5.54822V5.54842V5.54863V5.54883V5.54904V5.54925V5.54945V5.54966V5.54987V5.55007V5.55028V5.55048V5.55069V5.5509V5.5511V5.55131V5.55152V5.55172V5.55193V5.55213V5.55234V5.55255V5.55275V5.55296V5.55317V5.55337V5.55358V5.55379V5.55399V5.5542V5.5544V5.55461V5.55482V5.55502V5.55523V5.55544V5.55564V5.55585V5.55605V5.55626V5.55647V5.55667V5.55688V5.55709V5.55729V5.5575V5.5577V5.55791V5.55812V5.55832V5.55853V5.55874V5.55894V5.55915V5.55935V5.55956V5.55977V5.55997V5.56018V5.56039V5.56059V5.5608V5.56101V5.56121V5.56142V5.56162V5.56183V5.56204V5.56224V5.56245V5.56266V5.56286V5.56307V5.56327V5.56348V5.56369V5.56389V5.5641V5.56431V5.56451V5.56472V5.56492V5.56513V5.56534V5.56554V5.56575V5.56596V5.56616V5.56637V5.56657V5.56678V5.56699V5.56719V5.5674V5.56761V5.56781V5.56802V5.56823V5.56843V5.56864V5.56884V5.56905V5.56926V5.56946V5.56967V5.56988V5.57008V5.57029V5.57049V5.5707V5.57091V5.57111V5.57132V5.57153V5.57173V5.57194V5.57214V5.57235V5.57256V5.57276V5.57297V5.57318V5.57338V5.57359V5.57379V5.574V5.57421V5.57441V5.57462V5.57483V5.57503V5.57524V5.57545V5.57565V5.57586V5.57606V5.57627V5.57648V5.57668V5.57689V5.5771V5.5773V5.57751V5.57771V5.57792V5.57813V5.57833V5.57854V5.57875V5.57895V5.57916V5.57936V5.57957V5.57978V5.57998V5.58019V5.5804V5.5806V5.58081V5.58101V5.58122V5.58143V5.58163V5.58184V5.58205V5.58225V5.58246V5.58267V5.58287V5.58308V5.58328V5.58349V5.5837V5.5839V5.58411V5.58432V5.58452V5.58473V5.58493V5.58514V5.58535V5.58555V5.58576V5.58597V5.58617V5.58638V5.58658V5.58679V5.587V5.5872V5.58741V5.58762V5.58782V5.58803V5.58824V5.58844V5.58865V5.58885V5.58906V5.58927V5.58947V5.58968V5.58989V5.59009V5.5903V5.5905V5.59071V5.59092V5.59112V5.59133V5.59154V5.59174V5.59195V5.59215V5.59236V5.59257V5.59277V5.59298V5.59319V5.59339V5.5936V5.5938V5.59401V5.59422V5.59442V5.59463V5.59484V5.59504V5.59525V5.59546V5.59566V5.59587V5.59607V5.59628V5.59649V5.59669V5.5969V5.59711V5.59731V5.59752V5.59772V5.59793V5.59814V5.59834V5.59855V5.59876V5.59896V5.59917V5.59937V5.59958V5.59979V5.59999V5.6002V5.60041V5.60061V5.60082V5.60102V5.60123V5.60144V5.60164V5.60185V5.60206V5.60226V5.60247V5.60268V5.60288V5.60309V5.60329V5.6035V5.60371V5.60391V5.60412V5.60433V5.60453V5.60474V5.60494V5.60515V5.60536V5.60556V5.60577V5.60598V5.60618V5.60639V5.60659V5.6068V5.60701V5.60721V5.60742V5.60763V5.60783V5.60804V5.60824V5.60845V5.60866V5.60886V5.60907V5.60928V5.60948V5.60969V5.6099V5.6101V5.61031V5.61051V5.61072V5.61093V5.61113V5.61134V5.61155V5.61175V5.61196V5.61216V5.61237V5.61258V5.61278V5.61299V5.6132V5.6134V5.61361V5.61381V5.61402V5.61423V5.61443V5.61464V5.61485V5.61505V5.61526V5.61547V5.61567V5.61588V5.61608V5.61629V5.6165V5.6167V5.61691V5.61712V5.61732V5.61753V5.61773V5.61794V5.61815V5.61835V5.61856V5.61877V5.61897V5.61918V5.61938V5.61959V5.6198V5.62V5.62021V5.62042V5.62062V5.62083V5.62103V5.62124V5.62145V5.62165V5.62186V5.62207V5.62227V5.62248V5.62269V5.62289V5.6231V5.6233V5.62351V5.62372V5.62392V5.62413V5.62434V5.62454V5.62475V5.62495V5.62516V5.62537V5.62557V5.62578V5.62599V5.62619V5.6264V5.6266V5.62681V5.62702V5.62722V5.62743V5.62764V5.62784V5.62805V5.62826V5.62846V5.62867V5.62887V5.62908V5.62929V5.62949V5.6297V5.62991V5.63011V5.63032V5.63052V5.63073V5.63094V5.63114V5.63135V5.63156V5.63176V5.63197V5.63217V5.63238V5.63259V5.63279V5.633V5.63321V5.63341V5.63362V5.63383V5.63403V5.63424V5.63444V5.63465V5.63486V5.63506V5.63527V5.63548V5.63568V5.63589V5.63609V5.6363V5.63651V5.63671V5.63692V5.63713V5.63733V8.6594C11.8443 9.56318 11.5855 10.2358 11.1388 10.6825C10.6921 11.1292 10.0194 11.388 9.11564 11.388H3.95762H3.95738H3.95714H3.9569H3.95666H3.95642H3.95618H3.95594H3.9557H3.95546H3.95522H3.95498H3.95474H3.9545H3.95426H3.95402H3.95378H3.95355H3.95331H3.95307H3.95283H3.95259H3.95236H3.95212H3.95188H3.95164H3.95141H3.95117H3.95093H3.95069H3.95046H3.95022H3.94998H3.94975H3.94951H3.94928H3.94904H3.9488H3.94857H3.94833H3.9481H3.94786H3.94763H3.94739H3.94716H3.94692H3.94669H3.94645H3.94622H3.94598H3.94575H3.94551H3.94528H3.94505H3.94481H3.94458H3.94434H3.94411H3.94388H3.94364H3.94341H3.94318H3.94295H3.94271H3.94248H3.94225H3.94201H3.94178H3.94155H3.94132H3.94109H3.94085H3.94062H3.94039H3.94016H3.93993H3.9397H3.93947H3.93923H3.939H3.93877H3.93854H3.93831H3.93808H3.93785H3.93762H3.93739H3.93716H3.93693H3.9367H3.93647H3.93624H3.93601H3.93578H3.93555H3.93532H3.9351H3.93487H3.93464H3.93441H3.93418H3.93395H3.93372H3.9335H3.93327H3.93304H3.93281H3.93258H3.93236H3.93213H3.9319H3.93167H3.93145H3.93122H3.93099H3.93076H3.93054H3.93031H3.93008H3.92986H3.92963H3.9294H3.92918H3.92895H3.92873H3.9285H3.92827H3.92805H3.92782H3.9276H3.92737H3.92715H3.92692H3.9267H3.92647H3.92625H3.92602H3.9258H3.92557H3.92535H3.92512H3.9249H3.92467H3.92445H3.92423H3.924H3.92378H3.92355H3.92333H3.92311H3.92288H3.92266H3.92244H3.92221H3.92199H3.92177H3.92154H3.92132H3.9211H3.92088H3.92065H3.92043H3.92021H3.91999H3.91976H3.91954H3.91932H3.9191H3.91888H3.91865H3.91843H3.91821H3.91799H3.91777H3.91755H3.91733H3.91711H3.91688H3.91666H3.91644H3.91622H3.916H3.91578H3.91556H3.91534H3.91512H3.9149H3.91468H3.91446H3.91424H3.91402H3.9138H3.91358H3.91336H3.91314H3.91292H3.9127H3.91248H3.91226H3.91204H3.91182H3.91161H3.91139H3.91117H3.91095H3.91073H3.91051H3.91029H3.91007H3.90986H3.90964H3.90942H3.9092H3.90898H3.90877H3.90855H3.90833H3.90811H3.9079H3.90768H3.90746H3.90724H3.90703H3.90681H3.90659H3.90637H3.90616H3.90594H3.90572H3.90551H3.90529H3.90507H3.90486H3.90464H3.90442H3.90421H3.90399H3.90377H3.90356H3.90334H3.90313H3.90291H3.90269H3.90248H3.90226H3.90205H3.90183H3.90162H3.9014H3.90119H3.90097H3.90076H3.90054H3.90032H3.90011H3.89989H3.89968H3.89947H3.89925H3.89904H3.89882H3.89861H3.89839H3.89818H3.89796H3.89775H3.89753H3.89732H3.89711H3.89689H3.89668H3.89646H3.89625H3.89604H3.89582H3.89561H3.8954H3.89518H3.89497H3.89476H3.89454H3.89433H3.89412H3.8939H3.89369H3.89348H3.89326H3.89305H3.89284H3.89263H3.89241H3.8922H3.89199H3.89177H3.89156H3.89135H3.89114H3.89092H3.89071H3.8905H3.89029H3.89008H3.88986H3.88965H3.88944H3.88923H3.88902H3.8888H3.88859H3.88838H3.88817H3.88796H3.88775H3.88753H3.88732H3.88711H3.8869H3.88669H3.88648H3.88627H3.88606H3.88584H3.88563H3.88542H3.88521H3.885H3.88479H3.88458H3.88437H3.88416H3.88395H3.88374H3.88353H3.88332H3.88311H3.88289H3.88268H3.88247H3.88226H3.88205H3.88184H3.88163H3.88142H3.88121H3.881H3.88079H3.88058H3.88037H3.88016H3.87995H3.87974H3.87953H3.87933H3.87912H3.87891H3.8787H3.87849H3.87828H3.87807H3.87786H3.87765H3.87744H3.87723H3.87702H3.87681H3.8766H3.87639H3.87619H3.87598H3.87577H3.87556H3.87535H3.87514H3.87493H3.87472H3.87451H3.87431H3.8741H3.87389H3.87368H3.87347H3.87326H3.87305H3.87285H3.87264H3.87243H3.87222H3.87201H3.8718H3.8716H3.87139H3.87118H3.87097H3.87076H3.87056H3.87035H3.87014H3.86993H3.86972H3.86951H3.86931H3.8691H3.86889H3.86868H3.86848H3.86827H3.86806H3.86785H3.86764H3.86744H3.86723H3.86702H3.86681H3.86661H3.8664H3.86619H3.86598H3.86578H3.86557H3.86536H3.86515H3.86495H3.86474H3.86453H3.86433H3.86412H3.86391H3.8637H3.8635H3.86329H3.86308H3.86287H3.86267H3.86246H3.86225H3.86205H3.86184H3.86163H3.86143H3.86122H3.86101H3.8608H3.8606H3.86039H3.86018H3.85998H3.85977H3.85956H3.85936H3.85915H3.85894H3.85874H3.85853H3.85832H3.85812H3.85791H3.8577H3.8575H3.85729H3.85708H3.85688H3.85667H3.85646H3.85626H3.85605H3.85584H3.85564H3.85543H3.85522H3.85502H3.85481H3.8546H3.8544H3.85419H3.85398H3.85378H3.85357H3.85336H3.85316H3.85295H3.85274H3.85254H3.85233H3.85213H3.85192H3.85171H3.85151H3.8513H3.85109H3.85089H3.85068H3.85047H3.85027H3.85006H3.84986H3.84965H3.84944H3.84924H3.84903H3.84882H3.84862H3.84841H3.84821H3.848H3.84779H3.84759H3.84738H3.84717H3.84697H3.84676H3.84655H3.84635H3.84614Z" fill="white" stroke="#92ABFE" stroke-width="0.586806"/>
<path id="Vector_3" d="M6.53615 9.14018C5.43883 9.14018 4.54688 8.24823 4.54688 7.1509C4.54688 6.05357 5.43883 5.16162 6.53615 5.16162C7.63348 5.16162 8.52543 6.05357 8.52543 7.1509C8.52543 8.24823 7.63348 9.14018 6.53615 9.14018ZM6.53615 6.04183C5.92588 6.04183 5.42708 6.54062 5.42708 7.1509C5.42708 7.76118 5.92588 8.25997 6.53615 8.25997C7.14643 8.25997 7.64523 7.76118 7.64523 7.1509C7.64523 6.54062 7.14643 6.04183 6.53615 6.04183Z" fill="#92ABFE"/>
<path id="Vector_4" d="M3.18229 8.88258C2.9417 8.88258 2.74219 8.68306 2.74219 8.44247V5.86051C2.74219 5.61992 2.9417 5.42041 3.18229 5.42041C3.42288 5.42041 3.6224 5.61992 3.6224 5.86051V8.44247C3.6224 8.68306 3.42875 8.88258 3.18229 8.88258Z" fill="#92ABFE"/>
<path id="Vector_5" d="M9.88542 8.88258C9.64483 8.88258 9.44531 8.68306 9.44531 8.44247V5.86051C9.44531 5.61992 9.64483 5.42041 9.88542 5.42041C10.126 5.42041 10.3255 5.61992 10.3255 5.86051V8.44247C10.3255 8.68306 10.1319 8.88258 9.88542 8.88258Z" fill="#92ABFE"/>
</g>
</g>
</svg>
