<svg width="15" height="15" viewBox="0 0 15 15" fill="none" xmlns="http://www.w3.org/2000/svg">
<g id="vuesax/bulk/weight">
<g id="weight">
<path id="Vector" opacity="0.4" d="M10.0347 13.2972H5.34028C4.52674 13.2972 3.8716 13.0273 3.42057 12.5763C2.96955 12.1253 2.69965 11.4701 2.69965 10.6566V4.78852C2.69965 3.97499 2.96955 3.31984 3.42057 2.86882C3.8716 2.41779 4.52674 2.14789 5.34028 2.14789H10.0347C10.8483 2.14789 11.5034 2.41779 11.9544 2.86882C12.4054 3.31984 12.6753 3.97499 12.6753 4.78852V10.6566C12.6753 11.4701 12.4054 12.1253 11.9544 12.5763C11.5034 13.0273 10.8483 13.2972 10.0347 13.2972Z" fill="#92ABFE" stroke="#92ABFE" stroke-width="0.586806"/>
<path id="Vector_2" d="M4.70698 5.55449C6.42067 4.07164 8.96283 4.06991 10.6728 5.5478L9.46941 7.47988C8.43722 6.62008 6.93841 6.62008 5.90622 7.47988L4.70698 5.55449Z" fill="#92ABFE" stroke="#92ABFE" stroke-width="0.586806"/>
</g>
</g>
</svg>
