<svg width="347" height="345" viewBox="0 0 347 345" fill="none" xmlns="http://www.w3.org/2000/svg">
<g filter="url(#filter0_ii_1134_3035)">
<mask id="mask0_1134_3035" style="mask-type:luminance" maskUnits="userSpaceOnUse" x="0" y="111" width="206" height="234">
<path d="M24.2491 331.344H181.737C184.72 331.344 187.581 330.252 189.691 328.307C191.801 326.362 192.986 323.725 192.986 320.975V175.795H136.74V123.945H24.2491C21.2657 123.945 18.4044 125.038 16.2948 126.983C14.1852 128.927 13 131.565 13 134.315V320.975C13 323.725 14.1852 326.362 16.2948 328.307C18.4044 330.252 21.2657 331.344 24.2491 331.344Z" fill="white" stroke="white" stroke-width="25.3719" stroke-linecap="round" stroke-linejoin="round"/>
<path d="M136.747 123.945L192.992 175.795" stroke="white" stroke-width="25.3719" stroke-linecap="round" stroke-linejoin="round"/>
<path d="M63.6182 232.827H142.362L114.239 206.902M142.362 263.937H63.6182L91.7409 289.862" stroke="black" stroke-width="25.3719" stroke-linecap="round" stroke-linejoin="round"/>
</mask>
<g mask="url(#mask0_1134_3035)">
<path d="M-31.9912 103.205H237.988V352.084H-31.9912V103.205Z" fill="url(#paint0_linear_1134_3035)"/>
</g>
</g>
<g filter="url(#filter1_i_1134_3035)">
<path d="M185.07 70.6849C186.325 68.3293 185.433 65.4022 183.078 64.147C180.722 62.8917 177.795 63.7837 176.54 66.1393L185.07 70.6849ZM245.088 147.424L202.819 110.988L192.399 165.813L245.088 147.424ZM176.54 66.1393C171.014 76.5084 166.554 91.2873 168.717 105.899C170.938 120.894 180.069 135.115 200.475 143.754L204.243 134.853C186.847 127.488 179.991 116.043 178.279 104.483C176.51 92.5392 180.173 79.8741 185.07 70.6849L176.54 66.1393Z" fill="url(#paint1_linear_1134_3035)"/>
</g>
<g filter="url(#filter2_i_1134_3035)">
<path d="M292.711 48.0338C293.864 50.3461 296.841 51.3224 299.36 50.2146C301.879 49.1067 302.986 46.3341 301.833 44.0218L292.711 48.0338ZM187.266 63.7014L243.965 51.827L205.365 12.492L187.266 63.7014ZM301.833 44.0218C296.324 32.9728 285.839 23.2898 271.195 19.7448C256.472 16.1806 238.406 19.0212 218.197 31.4629L223.651 39.1663C242.09 27.8141 257.206 25.9968 268.498 28.7304C279.869 31.4832 288.233 39.0538 292.711 48.0338L301.833 44.0218Z" fill="url(#paint2_linear_1134_3035)"/>
</g>
<g filter="url(#filter3_i_1134_3035)">
<path d="M261.539 141.956C258.925 141.279 256.311 142.812 255.701 145.378C255.091 147.944 256.716 150.572 259.33 151.248L261.539 141.956ZM317.062 57.8834L290.692 106.102L346.786 105.762L317.062 57.8834ZM259.33 151.248C271.838 154.483 286.346 153.443 298.587 145.721C310.925 137.937 320.351 123.756 323.387 101.905L313.755 100.334C311.02 120.021 302.78 131.53 293.194 137.577C283.51 143.686 271.835 144.618 261.539 141.956L259.33 151.248Z" fill="url(#paint3_linear_1134_3035)"/>
</g>
<defs>
<filter id="filter0_ii_1134_3035" x="0.313965" y="111.26" width="221.474" height="245.659" filterUnits="userSpaceOnUse" color-interpolation-filters="sRGB">
<feFlood flood-opacity="0" result="BackgroundImageFix"/>
<feBlend mode="normal" in="SourceGraphic" in2="BackgroundImageFix" result="shape"/>
<feColorMatrix in="SourceAlpha" type="matrix" values="0 0 0 0 0 0 0 0 0 0 0 0 0 0 0 0 0 0 127 0" result="hardAlpha"/>
<feOffset dx="16.1097" dy="9.66585"/>
<feGaussianBlur stdDeviation="11.2768"/>
<feComposite in2="hardAlpha" operator="arithmetic" k2="-1" k3="1"/>
<feColorMatrix type="matrix" values="0 0 0 0 0 0 0 0 0 0 0 0 0 0 0 0 0 0 0.25 0"/>
<feBlend mode="normal" in2="shape" result="effect1_innerShadow_1134_3035"/>
<feColorMatrix in="SourceAlpha" type="matrix" values="0 0 0 0 0 0 0 0 0 0 0 0 0 0 0 0 0 0 127 0" result="hardAlpha"/>
<feOffset dy="12.8878"/>
<feGaussianBlur stdDeviation="6.4439"/>
<feComposite in2="hardAlpha" operator="arithmetic" k2="-1" k3="1"/>
<feColorMatrix type="matrix" values="0 0 0 0 1 0 0 0 0 1 0 0 0 0 1 0 0 0 0.25 0"/>
<feBlend mode="normal" in2="effect1_innerShadow_1134_3035" result="effect2_innerShadow_1134_3035"/>
</filter>
<filter id="filter1_i_1134_3035" x="168.16" y="63.5781" width="76.9277" height="115.122" filterUnits="userSpaceOnUse" color-interpolation-filters="sRGB">
<feFlood flood-opacity="0" result="BackgroundImageFix"/>
<feBlend mode="normal" in="SourceGraphic" in2="BackgroundImageFix" result="shape"/>
<feColorMatrix in="SourceAlpha" type="matrix" values="0 0 0 0 0 0 0 0 0 0 0 0 0 0 0 0 0 0 127 0" result="hardAlpha"/>
<feOffset dy="12.8878"/>
<feGaussianBlur stdDeviation="6.4439"/>
<feComposite in2="hardAlpha" operator="arithmetic" k2="-1" k3="1"/>
<feColorMatrix type="matrix" values="0 0 0 0 0 0 0 0 0 0 0 0 0 0 0 0 0 0 0.25 0"/>
<feBlend mode="normal" in2="shape" result="effect1_innerShadow_1134_3035"/>
</filter>
<filter id="filter2_i_1134_3035" x="187.267" y="12.4922" width="115.023" height="64.0968" filterUnits="userSpaceOnUse" color-interpolation-filters="sRGB">
<feFlood flood-opacity="0" result="BackgroundImageFix"/>
<feBlend mode="normal" in="SourceGraphic" in2="BackgroundImageFix" result="shape"/>
<feColorMatrix in="SourceAlpha" type="matrix" values="0 0 0 0 0 0 0 0 0 0 0 0 0 0 0 0 0 0 127 0" result="hardAlpha"/>
<feOffset dy="12.8878"/>
<feGaussianBlur stdDeviation="6.4439"/>
<feComposite in2="hardAlpha" operator="arithmetic" k2="-1" k3="1"/>
<feColorMatrix type="matrix" values="0 0 0 0 0 0 0 0 0 0 0 0 0 0 0 0 0 0 0.25 0"/>
<feBlend mode="normal" in2="shape" result="effect1_innerShadow_1134_3035"/>
</filter>
<filter id="filter3_i_1134_3035" x="255.573" y="57.8828" width="91.2129" height="107.976" filterUnits="userSpaceOnUse" color-interpolation-filters="sRGB">
<feFlood flood-opacity="0" result="BackgroundImageFix"/>
<feBlend mode="normal" in="SourceGraphic" in2="BackgroundImageFix" result="shape"/>
<feColorMatrix in="SourceAlpha" type="matrix" values="0 0 0 0 0 0 0 0 0 0 0 0 0 0 0 0 0 0 127 0" result="hardAlpha"/>
<feOffset dy="12.8878"/>
<feGaussianBlur stdDeviation="6.4439"/>
<feComposite in2="hardAlpha" operator="arithmetic" k2="-1" k3="1"/>
<feColorMatrix type="matrix" values="0 0 0 0 0 0 0 0 0 0 0 0 0 0 0 0 0 0 0.25 0"/>
<feBlend mode="normal" in2="shape" result="effect1_innerShadow_1134_3035"/>
</filter>
<linearGradient id="paint0_linear_1134_3035" x1="102.998" y1="103.205" x2="102.998" y2="352.084" gradientUnits="userSpaceOnUse">
<stop stop-color="#0063F8"/>
<stop offset="1" stop-color="#19DFDF"/>
</linearGradient>
<linearGradient id="paint1_linear_1134_3035" x1="209.041" y1="68.4121" x2="209.041" y2="147.424" gradientUnits="userSpaceOnUse">
<stop stop-color="#19DFDF"/>
<stop offset="1" stop-color="#0063F8"/>
</linearGradient>
<linearGradient id="paint2_linear_1134_3035" x1="272.692" y1="74.4154" x2="218.568" y2="27.5509" gradientUnits="userSpaceOnUse">
<stop stop-color="#19DFDF"/>
<stop offset="1" stop-color="#0063F8"/>
</linearGradient>
<linearGradient id="paint3_linear_1134_3035" x1="252.887" y1="110.953" x2="325.063" y2="95.6709" gradientUnits="userSpaceOnUse">
<stop stop-color="#19DFDF"/>
<stop offset="1" stop-color="#0063F8"/>
</linearGradient>
</defs>
</svg>
