<svg width="258" height="295" viewBox="0 0 258 295" fill="none" xmlns="http://www.w3.org/2000/svg">
<g filter="url(#filter0_ii_1538_3734)">
<path d="M101.357 0C94.0254 0 86.9943 2.91236 81.8103 8.0964C76.6262 13.2804 73.7139 20.3115 73.7139 27.6429V46.0714C73.7139 53.4028 76.6262 60.4338 81.8103 65.6179C86.9943 70.8019 94.0254 73.7143 101.357 73.7143H156.642C163.974 73.7143 171.005 70.8019 176.189 65.6179C181.373 60.4338 184.285 53.4028 184.285 46.0714V27.6429C184.285 20.3115 181.373 13.2804 176.189 8.0964C171.005 2.91236 163.974 0 156.642 0L101.357 0ZM156.642 18.4286C159.086 18.4286 161.43 19.3994 163.158 21.1274C164.886 22.8554 165.857 25.1991 165.857 27.6429V46.0714C165.857 48.5152 164.886 50.8589 163.158 52.5869C161.43 54.3149 159.086 55.2857 156.642 55.2857H101.357C98.9129 55.2857 96.5693 54.3149 94.8412 52.5869C93.1132 50.8589 92.1424 48.5152 92.1424 46.0714V27.6429C92.1424 25.1991 93.1132 22.8554 94.8412 21.1274C96.5693 19.3994 98.9129 18.4286 101.357 18.4286H156.642Z" fill="url(#paint0_linear_1538_3734)"/>
<path d="M55.2857 27.6426H36.8571C27.082 27.6426 17.7073 31.5257 10.7952 38.4378C3.88315 45.3498 0 54.7246 0 64.4997V258C0 267.775 3.88315 277.15 10.7952 284.062C17.7073 290.974 27.082 294.857 36.8571 294.857H221.143C230.918 294.857 240.293 290.974 247.205 284.062C254.117 277.15 258 267.775 258 258V64.4997C258 54.7246 254.117 45.3498 247.205 38.4378C240.293 31.5257 230.918 27.6426 221.143 27.6426H202.714V46.0711C202.714 52.1213 201.523 58.1123 199.207 63.7019C196.892 69.2916 193.498 74.3704 189.22 78.6486C184.942 82.9267 179.863 86.3203 174.274 88.6356C168.684 90.9509 162.693 92.1426 156.643 92.1426H101.357C89.1382 92.1426 77.4198 87.2886 68.7797 78.6486C60.1397 70.0085 55.2857 58.2901 55.2857 46.0711V27.6426ZM165.857 147.428C165.857 142.541 167.799 137.853 171.255 134.397C174.711 130.941 179.398 129 184.286 129C189.173 129 193.861 130.941 197.317 134.397C200.773 137.853 202.714 142.541 202.714 147.428V239.571C202.714 244.459 200.773 249.146 197.317 252.602C193.861 256.058 189.173 258 184.286 258C179.398 258 174.711 256.058 171.255 252.602C167.799 249.146 165.857 244.459 165.857 239.571V147.428ZM55.2857 221.143C55.2857 216.255 57.2273 211.568 60.6833 208.112C64.1394 204.656 68.8267 202.714 73.7143 202.714C78.6018 202.714 83.2892 204.656 86.7453 208.112C90.2013 211.568 92.1429 216.255 92.1429 221.143V239.571C92.1429 244.459 90.2013 249.146 86.7453 252.602C83.2892 256.058 78.6018 258 73.7143 258C68.8267 258 64.1394 256.058 60.6833 252.602C57.2273 249.146 55.2857 244.459 55.2857 239.571V221.143ZM129 165.857C133.888 165.857 138.575 167.798 142.031 171.254C145.487 174.71 147.429 179.398 147.429 184.285V239.571C147.429 244.459 145.487 249.146 142.031 252.602C138.575 256.058 133.888 258 129 258C124.112 258 119.425 256.058 115.969 252.602C112.513 249.146 110.571 244.459 110.571 239.571V184.285C110.571 179.398 112.513 174.71 115.969 171.254C119.425 167.798 124.112 165.857 129 165.857Z" fill="url(#paint1_linear_1538_3734)"/>
</g>
<defs>
<filter id="filter0_ii_1538_3734" x="0" y="0" width="266.92" height="303.777" filterUnits="userSpaceOnUse" color-interpolation-filters="sRGB">
<feFlood flood-opacity="0" result="BackgroundImageFix"/>
<feBlend mode="normal" in="SourceGraphic" in2="BackgroundImageFix" result="shape"/>
<feColorMatrix in="SourceAlpha" type="matrix" values="0 0 0 0 0 0 0 0 0 0 0 0 0 0 0 0 0 0 127 0" result="hardAlpha"/>
<feOffset dx="8.92003" dy="8.92003"/>
<feGaussianBlur stdDeviation="8.92003"/>
<feComposite in2="hardAlpha" operator="arithmetic" k2="-1" k3="1"/>
<feColorMatrix type="matrix" values="0 0 0 0 0 0 0 0 0 0 0 0 0 0 0 0 0 0 0.25 0"/>
<feBlend mode="normal" in2="shape" result="effect1_innerShadow_1538_3734"/>
<feColorMatrix in="SourceAlpha" type="matrix" values="0 0 0 0 0 0 0 0 0 0 0 0 0 0 0 0 0 0 127 0" result="hardAlpha"/>
<feOffset dy="8.92003"/>
<feGaussianBlur stdDeviation="11.15"/>
<feComposite in2="hardAlpha" operator="arithmetic" k2="-1" k3="1"/>
<feColorMatrix type="matrix" values="0 0 0 0 0 0 0 0 0 0 0 0 0 0 0 0 0 0 0.25 0"/>
<feBlend mode="normal" in2="effect1_innerShadow_1538_3734" result="effect2_innerShadow_1538_3734"/>
</filter>
<linearGradient id="paint0_linear_1538_3734" x1="129" y1="0" x2="129" y2="73.7143" gradientUnits="userSpaceOnUse">
<stop stop-color="#0063F8"/>
<stop offset="1" stop-color="#239CAF"/>
</linearGradient>
<linearGradient id="paint1_linear_1538_3734" x1="129" y1="27.6426" x2="129" y2="294.857" gradientUnits="userSpaceOnUse">
<stop stop-color="#0063F8"/>
<stop offset="1" stop-color="#239CAF"/>
</linearGradient>
</defs>
</svg>
