<svg width="281" height="353" viewBox="0 0 281 353" fill="none" xmlns="http://www.w3.org/2000/svg">
<g filter="url(#filter0_i_1518_3488)">
<path d="M91.7403 55.8778L101.423 46.1951C106.23 41.2296 108.892 34.5737 108.836 27.663C108.78 20.7522 106.01 14.1405 101.123 9.25368C96.2364 4.3669 89.6246 1.59672 82.7139 1.54061C75.8031 1.48451 69.1472 4.14698 64.1818 8.95377L54.499 18.6365C51.2441 21.8914 47.2742 24.3493 42.8946 25.8092L27.2012 31.0379V32.8999L77.4769 83.1757H79.339L84.5751 67.4822C86.0275 63.1101 88.4854 59.1401 91.7403 55.8778ZM91.7403 55.8778L92.5224 57.1068C101.387 72.517 115.61 84.1285 132.482 89.7301M49.5459 75.7274C48.5678 76.7055 47.4066 77.4814 46.1287 78.0108C44.8507 78.5401 43.481 78.8126 42.0977 78.8126C39.304 78.8126 36.6248 77.7028 34.6494 75.7274C33.6713 74.7493 32.8954 73.5881 32.3661 72.3101C31.8367 71.0321 31.5643 69.6624 31.5643 68.2791C31.5643 65.4855 32.674 62.8063 34.6494 60.8309M101.416 8.96122L109.877 0.5L101.416 8.96122ZM90.5114 150.21C90.5114 145.294 91.353 140.363 93.6024 135.984C102.013 119.651 115.888 106.788 132.81 99.6363M90.5114 150.21C131.477 150.21 153.822 165.106 153.822 165.106V172.555H27.2012V165.106C27.2012 165.106 49.5459 150.21 90.5114 150.21ZM132.803 99.6363C133.995 101.857 135.903 103.61 138.217 104.609C140.531 105.608 143.115 105.796 145.549 105.141C147.984 104.486 150.125 103.027 151.625 101.001C153.125 98.9755 153.896 96.502 153.813 93.9827C153.729 91.4634 152.796 89.0463 151.166 87.1242C149.535 85.2021 147.302 83.8879 144.83 83.3952C142.358 82.9026 139.792 83.2603 137.549 84.4104C135.306 85.5605 133.525 87.4353 132.482 89.7301M132.803 99.6363C131.986 98.1229 131.531 96.4406 131.474 94.7217C131.417 93.0029 131.767 91.2942 132.482 89.7301" fill="#367CFF"/>
</g>
<g filter="url(#filter1_di_1518_3488)">
<path d="M206.929 291.52C205.481 291.52 204.953 293.427 206.194 294.171L232.039 309.67C232.491 309.941 233.055 309.941 233.507 309.67L277.21 283.448C278.134 282.894 278.134 281.555 277.21 281L233.507 254.779C233.055 254.507 232.491 254.507 232.039 254.779L190.715 279.573C189.474 280.318 190.002 282.224 191.449 282.224H231.346C232.134 282.224 232.773 282.863 232.773 283.652V290.092C232.773 290.88 232.134 291.52 231.346 291.52H206.929ZM188.458 292.817C187.506 292.246 186.296 292.931 186.296 294.041V324.984C186.296 326.292 187.908 326.911 188.784 325.94L195.224 318.791C195.461 318.528 195.591 318.188 195.591 317.835V297.905C195.591 297.404 195.328 296.939 194.898 296.681L188.458 292.817ZM233.507 346.851C233.055 347.123 232.491 347.123 232.039 346.851L209.534 333.349L200.932 328.188C200.502 327.93 200.239 327.465 200.239 326.964V302.407C200.239 301.297 201.449 300.612 202.401 301.183L232.039 318.965C232.491 319.236 233.055 319.236 233.507 318.965L263.145 301.183C264.097 300.612 265.307 301.297 265.307 302.407V326.964C265.307 327.465 265.044 327.93 264.614 328.188L233.507 346.851Z" fill="url(#paint0_radial_1518_3488)"/>
</g>
<g filter="url(#filter2_di_1518_3488)">
<path d="M75.2664 321.073C75.2664 332.042 71.3387 340.935 60.3699 340.935H25.6114C5.74934 340.935 5.74934 271.418 25.6114 271.418H60.3699C71.3387 271.418 75.2664 280.311 75.2664 291.28V321.073Z" fill="#0063F8"/>
<path d="M169.614 331.004H164.648V281.349H169.614C170.93 281.349 172.193 280.826 173.125 279.895C174.056 278.963 174.579 277.7 174.579 276.383C174.579 275.067 174.056 273.804 173.125 272.872C172.193 271.941 170.93 271.418 169.614 271.418H50.4414C30.5794 271.418 30.5794 340.935 50.4414 340.935H169.614C170.93 340.935 172.193 340.412 173.125 339.481C174.056 338.549 174.579 337.286 174.579 335.97C174.579 334.653 174.056 333.39 173.125 332.458C172.193 331.527 170.93 331.004 169.614 331.004Z" fill="#0063F8"/>
<g filter="url(#filter3_d_1518_3488)">
<path d="M170.466 331.007H55.4053C45.4743 331.007 45.4743 281.352 55.4053 281.352H170.466C175.948 281.352 175.948 331.007 170.466 331.007Z" fill="#F0F0F0"/>
</g>
<path d="M57.8877 291.283H173.832C173.162 285.448 172.045 281.352 170.466 281.352H55.4049C47.2069 281.352 45.7818 315.157 51.1197 326.975C49.1732 312.282 51.4275 291.283 57.8877 291.283Z" fill="#44B6FF"/>
<path d="M60.3705 206.868C60.3705 212.136 58.2779 217.188 54.5531 220.912C50.8282 224.637 45.7763 226.73 40.5085 226.73H20.6465C0.784496 226.73 0.784496 172.109 20.6465 172.109H40.5085C45.7763 172.109 50.8282 174.202 54.5531 177.927C58.2779 181.652 60.3705 186.704 60.3705 191.971V206.868Z" fill="#006CBD"/>
<path d="M154.717 216.799H149.751V182.04H154.717C156.033 182.04 157.296 181.517 158.228 180.586C159.159 179.655 159.682 178.392 159.682 177.075C159.682 175.758 159.159 174.495 158.228 173.564C157.296 172.633 156.033 172.109 154.717 172.109H35.5445C15.6824 172.109 15.6824 226.73 35.5445 226.73H154.717C156.033 226.73 157.296 226.207 158.228 225.276C159.159 224.344 159.682 223.081 159.682 221.764C159.682 220.447 159.159 219.184 158.228 218.253C157.296 217.322 156.033 216.799 154.717 216.799Z" fill="#55ACEE"/>
<g filter="url(#filter4_d_1518_3488)">
<path d="M155.568 216.798H40.5073C30.5763 216.798 30.5763 182.039 40.5073 182.039H155.568C161.05 182.039 161.05 216.798 155.568 216.798Z" fill="#F0F0F0"/>
</g>
<path d="M40.5087 191.97H159.308C158.742 186.384 157.501 182.039 155.569 182.039H40.5087C34.5848 182.039 32.2212 194.398 33.3683 204.384C34.1429 197.641 36.5015 191.97 40.5087 191.97Z" fill="#44B6FF"/>
<path d="M100.097 251.556C100.097 256.824 98.0041 261.876 94.2792 265.601C90.5544 269.325 85.5024 271.418 80.2347 271.418H30.5796C10.7176 271.418 10.7176 226.729 30.5796 226.729H80.2347C85.5024 226.729 90.5544 228.821 94.2792 232.546C98.0041 236.271 100.097 241.323 100.097 246.591V251.556Z" fill="#367CFF"/>
<path d="M174.579 261.487H169.614V236.66H174.579C175.896 236.66 177.159 236.136 178.09 235.205C179.022 234.274 179.545 233.011 179.545 231.694C179.545 230.377 179.022 229.114 178.09 228.183C177.159 227.252 175.896 226.729 174.579 226.729H75.2691C55.4071 226.729 55.4071 271.418 75.2691 271.418H174.579C175.896 271.418 177.159 270.895 178.09 269.964C179.022 269.032 179.545 267.769 179.545 266.453C179.545 265.136 179.022 263.873 178.09 262.941C177.159 262.01 175.896 261.487 174.579 261.487Z" fill="#00FFFF"/>
<g filter="url(#filter5_d_1518_3488)">
<path d="M175.432 261.49H80.2329C70.3019 261.49 70.3019 236.662 80.2329 236.662H175.432C180.913 236.662 180.913 261.49 175.432 261.49Z" fill="#F0F0F0"/>
</g>
<path d="M80.2327 246.593H179.463C179.141 241.32 177.805 236.662 175.431 236.662H80.2327C73.9066 236.662 71.6274 246.727 73.3654 254.041C74.3485 249.875 76.6277 246.593 80.2327 246.593Z" fill="#44B6FF"/>
</g>
<defs>
<filter id="filter0_i_1518_3488" x="27.2012" y="0.5" width="126.62" height="177.545" filterUnits="userSpaceOnUse" color-interpolation-filters="sRGB">
<feFlood flood-opacity="0" result="BackgroundImageFix"/>
<feBlend mode="normal" in="SourceGraphic" in2="BackgroundImageFix" result="shape"/>
<feColorMatrix in="SourceAlpha" type="matrix" values="0 0 0 0 0 0 0 0 0 0 0 0 0 0 0 0 0 0 127 0" result="hardAlpha"/>
<feOffset dy="5.4902"/>
<feGaussianBlur stdDeviation="2.7451"/>
<feComposite in2="hardAlpha" operator="arithmetic" k2="-1" k3="1"/>
<feColorMatrix type="matrix" values="0 0 0 0 0 0 0 0 0 0 0 0 0 0 0 0 0 0 0.25 0"/>
<feBlend mode="normal" in2="shape" result="effect1_innerShadow_1518_3488"/>
</filter>
<filter id="filter1_di_1518_3488" x="183.441" y="254.574" width="98.031" height="98.1903" filterUnits="userSpaceOnUse" color-interpolation-filters="sRGB">
<feFlood flood-opacity="0" result="BackgroundImageFix"/>
<feColorMatrix in="SourceAlpha" type="matrix" values="0 0 0 0 0 0 0 0 0 0 0 0 0 0 0 0 0 0 127 0" result="hardAlpha"/>
<feOffset dy="2.8549"/>
<feGaussianBlur stdDeviation="1.42745"/>
<feComposite in2="hardAlpha" operator="out"/>
<feColorMatrix type="matrix" values="0 0 0 0 0 0 0 0 0 0 0 0 0 0 0 0 0 0 0.25 0"/>
<feBlend mode="normal" in2="BackgroundImageFix" result="effect1_dropShadow_1518_3488"/>
<feBlend mode="normal" in="SourceGraphic" in2="effect1_dropShadow_1518_3488" result="shape"/>
<feColorMatrix in="SourceAlpha" type="matrix" values="0 0 0 0 0 0 0 0 0 0 0 0 0 0 0 0 0 0 127 0" result="hardAlpha"/>
<feOffset dx="3.56863" dy="2.14118"/>
<feGaussianBlur stdDeviation="4.63922"/>
<feComposite in2="hardAlpha" operator="arithmetic" k2="-1" k3="1"/>
<feColorMatrix type="matrix" values="0 0 0 0 0 0 0 0 0 0 0 0 0 0 0 0 0 0 0.25 0"/>
<feBlend mode="normal" in2="shape" result="effect2_innerShadow_1518_3488"/>
</filter>
<filter id="filter2_di_1518_3488" x="0.259804" y="172.109" width="188.892" height="179.807" filterUnits="userSpaceOnUse" color-interpolation-filters="sRGB">
<feFlood flood-opacity="0" result="BackgroundImageFix"/>
<feColorMatrix in="SourceAlpha" type="matrix" values="0 0 0 0 0 0 0 0 0 0 0 0 0 0 0 0 0 0 127 0" result="hardAlpha"/>
<feOffset dy="5.4902"/>
<feGaussianBlur stdDeviation="2.7451"/>
<feComposite in2="hardAlpha" operator="out"/>
<feColorMatrix type="matrix" values="0 0 0 0 0 0 0 0 0 0 0 0 0 0 0 0 0 0 0.25 0"/>
<feBlend mode="normal" in2="BackgroundImageFix" result="effect1_dropShadow_1518_3488"/>
<feBlend mode="normal" in="SourceGraphic" in2="effect1_dropShadow_1518_3488" result="shape"/>
<feColorMatrix in="SourceAlpha" type="matrix" values="0 0 0 0 0 0 0 0 0 0 0 0 0 0 0 0 0 0 127 0" result="hardAlpha"/>
<feOffset dx="9.60784" dy="5.4902"/>
<feGaussianBlur stdDeviation="9.60784"/>
<feComposite in2="hardAlpha" operator="arithmetic" k2="-1" k3="1"/>
<feColorMatrix type="matrix" values="0 0 0 0 1 0 0 0 0 1 0 0 0 0 1 0 0 0 0.25 0"/>
<feBlend mode="normal" in2="shape" result="effect2_innerShadow_1518_3488"/>
</filter>
<filter id="filter3_d_1518_3488" x="42.4668" y="281.352" width="137.601" height="60.6347" filterUnits="userSpaceOnUse" color-interpolation-filters="sRGB">
<feFlood flood-opacity="0" result="BackgroundImageFix"/>
<feColorMatrix in="SourceAlpha" type="matrix" values="0 0 0 0 0 0 0 0 0 0 0 0 0 0 0 0 0 0 127 0" result="hardAlpha"/>
<feOffset dy="5.4902"/>
<feGaussianBlur stdDeviation="2.7451"/>
<feComposite in2="hardAlpha" operator="out"/>
<feColorMatrix type="matrix" values="0 0 0 0 0 0 0 0 0 0 0 0 0 0 0 0 0 0 0.25 0"/>
<feBlend mode="normal" in2="BackgroundImageFix" result="effect1_dropShadow_1518_3488"/>
<feBlend mode="normal" in="SourceGraphic" in2="effect1_dropShadow_1518_3488" result="shape"/>
</filter>
<filter id="filter4_d_1518_3488" x="27.5689" y="182.039" width="137.601" height="45.7382" filterUnits="userSpaceOnUse" color-interpolation-filters="sRGB">
<feFlood flood-opacity="0" result="BackgroundImageFix"/>
<feColorMatrix in="SourceAlpha" type="matrix" values="0 0 0 0 0 0 0 0 0 0 0 0 0 0 0 0 0 0 127 0" result="hardAlpha"/>
<feOffset dy="5.4902"/>
<feGaussianBlur stdDeviation="2.7451"/>
<feComposite in2="hardAlpha" operator="out"/>
<feColorMatrix type="matrix" values="0 0 0 0 0 0 0 0 0 0 0 0 0 0 0 0 0 0 0.25 0"/>
<feBlend mode="normal" in2="BackgroundImageFix" result="effect1_dropShadow_1518_3488"/>
<feBlend mode="normal" in="SourceGraphic" in2="effect1_dropShadow_1518_3488" result="shape"/>
</filter>
<filter id="filter5_d_1518_3488" x="67.2945" y="236.662" width="117.739" height="35.8085" filterUnits="userSpaceOnUse" color-interpolation-filters="sRGB">
<feFlood flood-opacity="0" result="BackgroundImageFix"/>
<feColorMatrix in="SourceAlpha" type="matrix" values="0 0 0 0 0 0 0 0 0 0 0 0 0 0 0 0 0 0 127 0" result="hardAlpha"/>
<feOffset dy="5.4902"/>
<feGaussianBlur stdDeviation="2.7451"/>
<feComposite in2="hardAlpha" operator="out"/>
<feColorMatrix type="matrix" values="0 0 0 0 0 0 0 0 0 0 0 0 0 0 0 0 0 0 0.25 0"/>
<feBlend mode="normal" in2="BackgroundImageFix" result="effect1_dropShadow_1518_3488"/>
<feBlend mode="normal" in="SourceGraphic" in2="effect1_dropShadow_1518_3488" result="shape"/>
</filter>
<radialGradient id="paint0_radial_1518_3488" cx="0" cy="0" r="1" gradientUnits="userSpaceOnUse" gradientTransform="translate(245.787 287.337) rotate(102.246) scale(61.3516)">
<stop stop-color="#0C99FF"/>
<stop offset="1" stop-color="#0057FF"/>
</radialGradient>
</defs>
</svg>
