<svg width="415" height="264" viewBox="0 0 415 264" fill="none" xmlns="http://www.w3.org/2000/svg">
<g filter="url(#filter0_i_1134_3021)">
<path d="M379.189 167.672C379.98 167.672 380.739 167.986 381.299 168.546C381.858 169.105 382.173 169.864 382.173 170.656V185.574H400.075V170.656C400.075 169.864 400.389 169.105 400.949 168.546C401.508 167.986 402.267 167.672 403.059 167.672C403.85 167.672 404.609 167.986 405.169 168.546C405.728 169.105 406.042 169.864 406.042 170.656V185.574H412.01C412.801 185.574 413.56 185.889 414.12 186.448C414.679 187.008 414.994 187.767 414.994 188.558V206.46C414.994 211.999 412.793 217.312 408.876 221.229C404.959 225.146 399.647 227.346 394.108 227.346C394.096 229.936 394.048 232.389 393.869 234.626C393.624 237.694 393.117 240.612 391.977 243.124C390.822 245.781 388.774 247.951 386.189 249.258C383.515 250.619 380.198 251.216 376.205 251.216C370.25 251.216 366.598 253.185 364.426 255.5C362.464 257.572 361.345 260.299 361.287 263.151H355.319C355.319 259.475 356.704 254.993 360.075 251.407C363.519 247.755 368.812 245.248 376.205 245.248C379.672 245.248 381.946 244.723 383.474 243.942C384.912 243.208 385.861 242.151 386.541 240.659C387.263 239.072 387.693 236.954 387.913 234.155C388.075 232.126 388.122 229.87 388.134 227.346C382.596 227.345 377.285 225.143 373.369 221.227C369.454 217.31 367.254 211.998 367.254 206.46V188.558C367.254 187.767 367.569 187.008 368.128 186.448C368.688 185.889 369.447 185.574 370.238 185.574H376.205V170.656C376.205 169.864 376.52 169.105 377.079 168.546C377.639 167.986 378.398 167.672 379.189 167.672Z" fill="#377BFF"/>
</g>
<g filter="url(#filter1_di_1134_3021)">
<path fill-rule="evenodd" clip-rule="evenodd" d="M15.7399 70.958C18.7903 74.6871 26.5529 88.503 28.2018 95.422H72.5953C74.2442 88.5093 81.9973 74.6934 85.0477 70.9675C90.2605 64.6087 93.542 56.8892 94.5036 48.7232C95.4522 40.5729 94.0332 32.3219 90.4162 24.9568C86.7649 17.537 81.0877 11.3024 74.0413 6.97421C66.9329 2.60201 58.7503 0.289053 50.4049 0.292974C42.043 0.292974 33.8493 2.60778 26.7685 6.96786C19.7203 11.2944 14.0409 17.5279 10.3873 24.9473C6.76823 32.3095 5.34593 40.5582 6.29037 48.7073C7.23849 56.8472 10.5141 64.5622 15.7399 70.958ZM53.5695 25.6607L34.5437 54.1994H47.2276V73.2253L66.2534 44.6865H53.5695V25.6607Z" fill="url(#paint0_angular_1134_3021)"/>
<path d="M28.2075 104.939C28.2075 104.098 28.5416 103.291 29.1363 102.696C29.7309 102.102 30.5375 101.768 31.3785 101.768H69.4301C70.2711 101.768 71.0777 102.102 71.6723 102.696C72.267 103.291 72.6011 104.098 72.6011 104.939C72.6011 105.78 72.267 106.586 71.6723 107.181C71.0777 107.775 70.2711 108.11 69.4301 108.11H31.3785C30.5375 108.11 29.7309 107.775 29.1363 107.181C28.5416 106.586 28.2075 105.78 28.2075 104.939ZM72.6011 114.451H28.2075V120.793C28.2075 122.475 28.8757 124.088 30.065 125.278C31.2544 126.467 32.8675 127.135 34.5495 127.135H66.2591C67.9411 127.135 69.5542 126.467 70.7436 125.278C71.9329 124.088 72.6011 122.475 72.6011 120.793V114.451Z" fill="url(#paint1_angular_1134_3021)"/>
</g>
<g filter="url(#filter2_i_1134_3021)">
<path d="M158.83 19.2148H349.497V263.734H158.83V19.2148Z" fill="#0063F8"/>
</g>
<g style="mix-blend-mode:multiply" filter="url(#filter3_i_1134_3021)">
<path d="M102.068 19.2148H292.734V263.734H102.068V19.2148Z" fill="#19DFDF"/>
</g>
<g filter="url(#filter4_i_1134_3021)">
<g filter="url(#filter5_i_1134_3021)">
<rect x="190.851" y="78.8867" width="94.6055" height="7.27735" rx="3.63867" fill="white"/>
</g>
<g filter="url(#filter6_i_1134_3021)">
<rect x="190.851" y="93.4414" width="94.6055" height="7.27735" rx="3.63867" fill="white"/>
</g>
<g filter="url(#filter7_i_1134_3021)">
<rect x="190.851" y="107.994" width="122.259" height="7.27735" rx="3.63867" fill="white"/>
</g>
<g filter="url(#filter8_i_1134_3021)">
<rect x="190.851" y="122.551" width="64.0406" height="7.27735" rx="3.63867" fill="white"/>
</g>
<g filter="url(#filter9_i_1134_3021)">
<rect x="190.851" y="137.107" width="77.1399" height="7.27735" rx="3.63867" fill="white"/>
</g>
<g filter="url(#filter10_i_1134_3021)">
<rect x="190.851" y="151.662" width="77.1399" height="7.27735" rx="3.63867" fill="white"/>
</g>
</g>
<defs>
<filter id="filter0_i_1134_3021" x="355.319" y="167.672" width="59.6743" height="110.755" filterUnits="userSpaceOnUse" color-interpolation-filters="sRGB">
<feFlood flood-opacity="0" result="BackgroundImageFix"/>
<feBlend mode="normal" in="SourceGraphic" in2="BackgroundImageFix" result="shape"/>
<feColorMatrix in="SourceAlpha" type="matrix" values="0 0 0 0 0 0 0 0 0 0 0 0 0 0 0 0 0 0 127 0" result="hardAlpha"/>
<feOffset dy="15.2766"/>
<feGaussianBlur stdDeviation="7.6383"/>
<feComposite in2="hardAlpha" operator="arithmetic" k2="-1" k3="1"/>
<feColorMatrix type="matrix" values="0 0 0 0 0 0 0 0 0 0 0 0 0 0 0 0 0 0 0.25 0"/>
<feBlend mode="normal" in2="shape" result="effect1_innerShadow_1134_3021"/>
</filter>
<filter id="filter1_di_1134_3021" x="0.18447" y="0.292969" width="103.338" height="138.486" filterUnits="userSpaceOnUse" color-interpolation-filters="sRGB">
<feFlood flood-opacity="0" result="BackgroundImageFix"/>
<feColorMatrix in="SourceAlpha" type="matrix" values="0 0 0 0 0 0 0 0 0 0 0 0 0 0 0 0 0 0 127 0" result="hardAlpha"/>
<feOffset dy="5.82188"/>
<feGaussianBlur stdDeviation="2.91094"/>
<feComposite in2="hardAlpha" operator="out"/>
<feColorMatrix type="matrix" values="0 0 0 0 0.0682709 0 0 0 0 0.365225 0 0 0 0 0.941667 0 0 0 0.25 0"/>
<feBlend mode="normal" in2="BackgroundImageFix" result="effect1_dropShadow_1134_3021"/>
<feBlend mode="normal" in="SourceGraphic" in2="effect1_dropShadow_1134_3021" result="shape"/>
<feColorMatrix in="SourceAlpha" type="matrix" values="0 0 0 0 0 0 0 0 0 0 0 0 0 0 0 0 0 0 127 0" result="hardAlpha"/>
<feOffset dx="13.0992" dy="5.82188"/>
<feGaussianBlur stdDeviation="4.36641"/>
<feComposite in2="hardAlpha" operator="arithmetic" k2="-1" k3="1"/>
<feColorMatrix type="matrix" values="0 0 0 0 0.4 0 0 0 0 0.4 0 0 0 0 0.4 0 0 0 0.4 0"/>
<feBlend mode="normal" in2="shape" result="effect2_innerShadow_1134_3021"/>
</filter>
<filter id="filter2_i_1134_3021" x="158.83" y="19.2148" width="196.488" height="250.341" filterUnits="userSpaceOnUse" color-interpolation-filters="sRGB">
<feFlood flood-opacity="0" result="BackgroundImageFix"/>
<feBlend mode="normal" in="SourceGraphic" in2="BackgroundImageFix" result="shape"/>
<feColorMatrix in="SourceAlpha" type="matrix" values="0 0 0 0 0 0 0 0 0 0 0 0 0 0 0 0 0 0 127 0" result="hardAlpha"/>
<feOffset dx="16.0102" dy="5.82188"/>
<feGaussianBlur stdDeviation="2.91094"/>
<feComposite in2="hardAlpha" operator="arithmetic" k2="-1" k3="1"/>
<feColorMatrix type="matrix" values="0 0 0 0 0 0 0 0 0 0 0 0 0 0 0 0 0 0 0.25 0"/>
<feBlend mode="normal" in2="shape" result="effect1_innerShadow_1134_3021"/>
</filter>
<filter id="filter3_i_1134_3021" x="102.068" y="19.2148" width="196.488" height="250.341" filterUnits="userSpaceOnUse" color-interpolation-filters="sRGB">
<feFlood flood-opacity="0" result="BackgroundImageFix"/>
<feBlend mode="normal" in="SourceGraphic" in2="BackgroundImageFix" result="shape"/>
<feColorMatrix in="SourceAlpha" type="matrix" values="0 0 0 0 0 0 0 0 0 0 0 0 0 0 0 0 0 0 127 0" result="hardAlpha"/>
<feOffset dx="16.0102" dy="5.82188"/>
<feGaussianBlur stdDeviation="2.91094"/>
<feComposite in2="hardAlpha" operator="arithmetic" k2="-1" k3="1"/>
<feColorMatrix type="matrix" values="0 0 0 0 0 0 0 0 0 0 0 0 0 0 0 0 0 0 0.25 0"/>
<feBlend mode="normal" in2="shape" result="effect1_innerShadow_1134_3021"/>
</filter>
<filter id="filter4_i_1134_3021" x="190.851" y="78.8867" width="142.636" height="96.0629" filterUnits="userSpaceOnUse" color-interpolation-filters="sRGB">
<feFlood flood-opacity="0" result="BackgroundImageFix"/>
<feBlend mode="normal" in="SourceGraphic" in2="BackgroundImageFix" result="shape"/>
<feColorMatrix in="SourceAlpha" type="matrix" values="0 0 0 0 0 0 0 0 0 0 0 0 0 0 0 0 0 0 127 0" result="hardAlpha"/>
<feOffset dx="20.3766" dy="16.0102"/>
<feGaussianBlur stdDeviation="15.2824"/>
<feComposite in2="hardAlpha" operator="arithmetic" k2="-1" k3="1"/>
<feColorMatrix type="matrix" values="0 0 0 0 0 0 0 0 0 0 0 0 0 0 0 0 0 0 0.15 0"/>
<feBlend mode="normal" in2="shape" result="effect1_innerShadow_1134_3021"/>
</filter>
<filter id="filter5_i_1134_3021" x="190.851" y="78.8867" width="94.6055" height="13.0992" filterUnits="userSpaceOnUse" color-interpolation-filters="sRGB">
<feFlood flood-opacity="0" result="BackgroundImageFix"/>
<feBlend mode="normal" in="SourceGraphic" in2="BackgroundImageFix" result="shape"/>
<feColorMatrix in="SourceAlpha" type="matrix" values="0 0 0 0 0 0 0 0 0 0 0 0 0 0 0 0 0 0 127 0" result="hardAlpha"/>
<feOffset dy="5.82188"/>
<feGaussianBlur stdDeviation="2.91094"/>
<feComposite in2="hardAlpha" operator="arithmetic" k2="-1" k3="1"/>
<feColorMatrix type="matrix" values="0 0 0 0 1 0 0 0 0 1 0 0 0 0 1 0 0 0 0.25 0"/>
<feBlend mode="normal" in2="shape" result="effect1_innerShadow_1134_3021"/>
</filter>
<filter id="filter6_i_1134_3021" x="190.851" y="93.4414" width="94.6055" height="13.0992" filterUnits="userSpaceOnUse" color-interpolation-filters="sRGB">
<feFlood flood-opacity="0" result="BackgroundImageFix"/>
<feBlend mode="normal" in="SourceGraphic" in2="BackgroundImageFix" result="shape"/>
<feColorMatrix in="SourceAlpha" type="matrix" values="0 0 0 0 0 0 0 0 0 0 0 0 0 0 0 0 0 0 127 0" result="hardAlpha"/>
<feOffset dy="5.82188"/>
<feGaussianBlur stdDeviation="2.91094"/>
<feComposite in2="hardAlpha" operator="arithmetic" k2="-1" k3="1"/>
<feColorMatrix type="matrix" values="0 0 0 0 1 0 0 0 0 1 0 0 0 0 1 0 0 0 0.25 0"/>
<feBlend mode="normal" in2="shape" result="effect1_innerShadow_1134_3021"/>
</filter>
<filter id="filter7_i_1134_3021" x="190.851" y="107.994" width="122.259" height="13.0992" filterUnits="userSpaceOnUse" color-interpolation-filters="sRGB">
<feFlood flood-opacity="0" result="BackgroundImageFix"/>
<feBlend mode="normal" in="SourceGraphic" in2="BackgroundImageFix" result="shape"/>
<feColorMatrix in="SourceAlpha" type="matrix" values="0 0 0 0 0 0 0 0 0 0 0 0 0 0 0 0 0 0 127 0" result="hardAlpha"/>
<feOffset dy="5.82188"/>
<feGaussianBlur stdDeviation="2.91094"/>
<feComposite in2="hardAlpha" operator="arithmetic" k2="-1" k3="1"/>
<feColorMatrix type="matrix" values="0 0 0 0 1 0 0 0 0 1 0 0 0 0 1 0 0 0 0.25 0"/>
<feBlend mode="normal" in2="shape" result="effect1_innerShadow_1134_3021"/>
</filter>
<filter id="filter8_i_1134_3021" x="190.851" y="122.551" width="64.0405" height="13.0992" filterUnits="userSpaceOnUse" color-interpolation-filters="sRGB">
<feFlood flood-opacity="0" result="BackgroundImageFix"/>
<feBlend mode="normal" in="SourceGraphic" in2="BackgroundImageFix" result="shape"/>
<feColorMatrix in="SourceAlpha" type="matrix" values="0 0 0 0 0 0 0 0 0 0 0 0 0 0 0 0 0 0 127 0" result="hardAlpha"/>
<feOffset dy="5.82188"/>
<feGaussianBlur stdDeviation="2.91094"/>
<feComposite in2="hardAlpha" operator="arithmetic" k2="-1" k3="1"/>
<feColorMatrix type="matrix" values="0 0 0 0 1 0 0 0 0 1 0 0 0 0 1 0 0 0 0.25 0"/>
<feBlend mode="normal" in2="shape" result="effect1_innerShadow_1134_3021"/>
</filter>
<filter id="filter9_i_1134_3021" x="190.851" y="137.107" width="77.1396" height="13.0992" filterUnits="userSpaceOnUse" color-interpolation-filters="sRGB">
<feFlood flood-opacity="0" result="BackgroundImageFix"/>
<feBlend mode="normal" in="SourceGraphic" in2="BackgroundImageFix" result="shape"/>
<feColorMatrix in="SourceAlpha" type="matrix" values="0 0 0 0 0 0 0 0 0 0 0 0 0 0 0 0 0 0 127 0" result="hardAlpha"/>
<feOffset dy="5.82188"/>
<feGaussianBlur stdDeviation="2.91094"/>
<feComposite in2="hardAlpha" operator="arithmetic" k2="-1" k3="1"/>
<feColorMatrix type="matrix" values="0 0 0 0 1 0 0 0 0 1 0 0 0 0 1 0 0 0 0.25 0"/>
<feBlend mode="normal" in2="shape" result="effect1_innerShadow_1134_3021"/>
</filter>
<filter id="filter10_i_1134_3021" x="190.851" y="151.662" width="77.1396" height="13.0992" filterUnits="userSpaceOnUse" color-interpolation-filters="sRGB">
<feFlood flood-opacity="0" result="BackgroundImageFix"/>
<feBlend mode="normal" in="SourceGraphic" in2="BackgroundImageFix" result="shape"/>
<feColorMatrix in="SourceAlpha" type="matrix" values="0 0 0 0 0 0 0 0 0 0 0 0 0 0 0 0 0 0 127 0" result="hardAlpha"/>
<feOffset dy="5.82188"/>
<feGaussianBlur stdDeviation="2.91094"/>
<feComposite in2="hardAlpha" operator="arithmetic" k2="-1" k3="1"/>
<feColorMatrix type="matrix" values="0 0 0 0 1 0 0 0 0 1 0 0 0 0 1 0 0 0 0.25 0"/>
<feBlend mode="normal" in2="shape" result="effect1_innerShadow_1134_3021"/>
</filter>
<radialGradient id="paint0_angular_1134_3021" cx="0" cy="0" r="1" gradientUnits="userSpaceOnUse" gradientTransform="translate(50.3982 47.8575) rotate(90) scale(47.5645 44.3918)">
<stop stop-color="#1C0CF9"/>
<stop offset="0.0874738" stop-color="#0063F8"/>
<stop offset="0.351862" stop-color="#0063F8"/>
<stop offset="0.668116" stop-color="#19DFDF"/>
<stop offset="0.833579" stop-color="#053CFF"/>
<stop offset="0.855409" stop-color="#3057FF"/>
<stop offset="0.88518" stop-color="#6B7CFE"/>
<stop offset="0.950011" stop-color="#19DFDF"/>
<stop offset="1" stop-color="#0ADEFB"/>
</radialGradient>
<radialGradient id="paint1_angular_1134_3021" cx="0" cy="0" r="1" gradientUnits="userSpaceOnUse" gradientTransform="translate(50.4043 114.451) rotate(90) scale(12.6839 22.1968)">
<stop stop-color="#1C0CF9"/>
<stop offset="0.0874738" stop-color="#0063F8"/>
<stop offset="0.351862" stop-color="#0063F8"/>
<stop offset="0.668116" stop-color="#19DFDF"/>
<stop offset="0.833579" stop-color="#053CFF"/>
<stop offset="0.855409" stop-color="#3057FF"/>
<stop offset="0.88518" stop-color="#6B7CFE"/>
<stop offset="0.950011" stop-color="#19DFDF"/>
<stop offset="1" stop-color="#0ADEFB"/>
</radialGradient>
</defs>
</svg>
