<svg width="373" height="291" viewBox="0 0 373 291" fill="none" xmlns="http://www.w3.org/2000/svg">
<g filter="url(#filter0_i_1519_3518)">
<path d="M218.867 151.52H342.173V120.694H218.867V151.52ZM334.466 228.586V205.466H311.347V190.053H334.466V166.933H349.88V190.053H373V205.466H349.88V228.586H334.466ZM218.867 213.173C214.629 213.173 210.999 211.662 207.978 208.641C204.957 205.62 203.449 201.993 203.454 197.76V105.28C203.454 101.042 204.965 97.412 207.986 94.391C211.007 91.37 214.634 89.8621 218.867 89.8672H342.173C346.412 89.8672 350.042 91.3777 353.063 94.3987C356.084 97.4197 357.591 101.047 357.586 105.28V151.52H334.466C323.806 151.52 314.717 155.278 307.201 162.795C299.684 170.311 295.928 179.397 295.933 190.053V213.173H218.867Z" fill="#1C0CF9"/>
</g>
<g filter="url(#filter1_i_1519_3518)">
<path opacity="0.3" d="M28.5566 239.032H160.764V53.9414H28.5566V239.032ZM105.237 129.564V107.089L147.544 146.487L105.237 186.017V162.881C75.887 162.881 56.4525 171.871 41.7774 191.702C47.7268 163.409 64.1205 135.249 105.237 129.564Z" fill="#19DFDF"/>
<path d="M158.517 0H26.3093C11.7665 0 0 11.2377 0 25.7805V263.755C0 278.297 11.7665 290.857 26.3093 290.857H158.517C173.06 290.857 184.959 278.297 184.959 263.755V26.4416C184.959 11.8987 173.06 0 158.517 0ZM158.517 237.974H26.3093V52.8831H158.517V237.974ZM102.99 161.822V184.959L145.296 145.429L102.99 106.031V128.506C61.8732 134.191 45.4795 162.351 39.5301 190.644C54.2052 170.812 73.6397 161.822 102.99 161.822Z" fill="#0063F8"/>
</g>
<defs>
<filter id="filter0_i_1519_3518" x="203.454" y="89.8672" width="169.545" height="146.117" filterUnits="userSpaceOnUse" color-interpolation-filters="sRGB">
<feFlood flood-opacity="0" result="BackgroundImageFix"/>
<feBlend mode="normal" in="SourceGraphic" in2="BackgroundImageFix" result="shape"/>
<feColorMatrix in="SourceAlpha" type="matrix" values="0 0 0 0 0 0 0 0 0 0 0 0 0 0 0 0 0 0 127 0" result="hardAlpha"/>
<feOffset dy="7.39835"/>
<feGaussianBlur stdDeviation="3.69917"/>
<feComposite in2="hardAlpha" operator="arithmetic" k2="-1" k3="1"/>
<feColorMatrix type="matrix" values="0 0 0 0 0 0 0 0 0 0 0 0 0 0 0 0 0 0 0.25 0"/>
<feBlend mode="normal" in2="shape" result="effect1_innerShadow_1519_3518"/>
</filter>
<filter id="filter1_i_1519_3518" x="0" y="0" width="190.507" height="294.557" filterUnits="userSpaceOnUse" color-interpolation-filters="sRGB">
<feFlood flood-opacity="0" result="BackgroundImageFix"/>
<feBlend mode="normal" in="SourceGraphic" in2="BackgroundImageFix" result="shape"/>
<feColorMatrix in="SourceAlpha" type="matrix" values="0 0 0 0 0 0 0 0 0 0 0 0 0 0 0 0 0 0 127 0" result="hardAlpha"/>
<feOffset dx="5.54876" dy="3.69917"/>
<feGaussianBlur stdDeviation="3.69917"/>
<feComposite in2="hardAlpha" operator="arithmetic" k2="-1" k3="1"/>
<feColorMatrix type="matrix" values="0 0 0 0 0 0 0 0 0 0 0 0 0 0 0 0 0 0 0.25 0"/>
<feBlend mode="normal" in2="shape" result="effect1_innerShadow_1519_3518"/>
</filter>
</defs>
</svg>
