<svg width="24" height="24" viewBox="0 0 24 24" fill="none" xmlns="http://www.w3.org/2000/svg">
<g id="9mobile-Logo 1">
<path id="Vector" fill-rule="evenodd" clip-rule="evenodd" d="M7.84056 21.4611C8.1484 21.4611 8.37336 21.5263 8.51544 21.6567C8.65752 21.7871 8.72864 21.9899 8.7288 22.2651V23.7401H8.26704V22.3275C8.26704 22.0164 8.09264 21.8609 7.74384 21.8609C7.59318 21.8597 7.44526 21.9013 7.31736 21.9809C7.33949 22.074 7.34989 22.1694 7.34832 22.2651V23.7401H6.88656V22.3275C6.88656 22.0164 6.71216 21.8609 6.36336 21.8609C6.20421 21.8611 6.04636 21.8897 5.89728 21.9454V23.7401H5.43576V21.6922C5.58856 21.6162 5.75031 21.5598 5.9172 21.5242C6.09522 21.4827 6.27729 21.4611 6.46008 21.4599C6.74808 21.4599 6.96208 21.5159 7.10208 21.6279C7.33266 21.5177 7.58502 21.4607 7.84056 21.4611ZM10.3109 23.8078C9.95888 23.8078 9.69432 23.7071 9.5172 23.5056C9.34008 23.3042 9.25144 23.011 9.25128 22.626C9.25128 21.847 9.60328 21.4576 10.3073 21.4577C10.662 21.4577 10.9287 21.5576 11.1074 21.7575C11.2862 21.9573 11.3756 22.2468 11.3758 22.626C11.3758 23.0049 11.2834 23.2966 11.0988 23.5011C10.9142 23.7056 10.6515 23.8078 10.3109 23.8078ZM10.3063 23.4123C10.711 23.4123 10.9132 23.1502 10.913 22.626C10.913 22.3654 10.865 22.1707 10.769 22.0419C10.673 21.9131 10.5191 21.8486 10.3073 21.8484C10.0934 21.8484 9.94024 21.9144 9.84792 22.0462C9.7556 22.178 9.70944 22.3713 9.70944 22.626C9.70944 22.8806 9.75704 23.0753 9.85224 23.2102C9.94744 23.3451 10.0988 23.4121 10.3063 23.4113V23.4123ZM12.9173 21.462C13.2456 21.462 13.4947 21.5612 13.6646 21.7596C13.8346 21.958 13.9198 22.2391 13.9202 22.6028C13.9202 23.0412 13.8184 23.3514 13.6147 23.5335C13.411 23.7156 13.1522 23.807 12.8381 23.8078C12.2078 23.8078 11.8927 23.639 11.8927 23.3014V20.617H12.3502V21.5998C12.4421 21.5558 12.5387 21.5223 12.6382 21.4997C12.7294 21.4763 12.8231 21.4633 12.9173 21.4611V21.462ZM12.8028 23.4034C13.0428 23.4034 13.2108 23.3338 13.3068 23.1946C13.4028 23.0554 13.4508 22.8644 13.4508 22.6215C13.4508 22.3728 13.4002 22.1833 13.2991 22.0529C13.198 21.9225 13.0478 21.8574 12.8486 21.8576C12.7619 21.8581 12.6755 21.8693 12.5914 21.8907C12.5072 21.911 12.4263 21.9433 12.3514 21.9867V23.1867C12.3506 23.3307 12.501 23.4026 12.8028 23.4024V23.4034ZM14.442 20.7334H14.9345V21.1556H14.442V20.7334ZM14.4552 21.5242H14.917L14.9213 23.7411H14.4552V21.5242ZM15.5712 23.7411V20.666H16.0286V23.7401L15.5712 23.7411ZM17.5754 21.4558C17.9185 21.4558 18.1698 21.5678 18.3295 21.7918C18.4892 22.0158 18.5676 22.329 18.5647 22.7314H17.0162C17.0311 22.9506 17.0951 23.1172 17.2082 23.2313C17.3214 23.3454 17.4818 23.4024 17.6897 23.4022C17.9387 23.4025 18.1837 23.3398 18.402 23.22V23.6554C18.1734 23.757 17.9114 23.8078 17.6162 23.8078C17.285 23.8078 17.0249 23.7064 16.8358 23.5035C16.6466 23.3006 16.5522 23.0126 16.5523 22.6395C16.5523 22.2574 16.6417 21.965 16.8204 21.7623C16.9991 21.5596 17.2508 21.4574 17.5754 21.4558ZM17.5622 21.8398C17.4069 21.8398 17.2853 21.8813 17.1974 21.9644C17.1096 22.0474 17.0524 22.188 17.0258 22.3863H18.0943C18.0737 22.1967 18.0209 22.0583 17.9359 21.9711C17.851 21.8839 17.7264 21.8401 17.5622 21.8398ZM13.1522 3.56284C12.643 3.43692 12.251 3.37388 11.9762 3.37372C9.92688 3.37372 8.26536 5.02972 8.26536 7.07188C8.26536 9.11404 9.9276 10.7703 11.9762 10.7703C14.0249 10.7703 15.6874 9.11428 15.6874 7.07188C15.6875 6.77353 15.6516 6.47625 15.5803 6.18652L18.5306 5.39188C18.7696 6.30046 18.8148 7.24914 18.6633 8.17632C18.5117 9.1035 18.1669 9.98843 17.651 10.7736L12.7656 19.831H8.23968L11.4557 13.903C11.4732 13.8704 11.4216 13.7984 11.3784 13.7945C7.94184 13.4825 5.25 10.6025 5.25 7.09636C5.25 3.3814 8.2716 0.370121 11.9993 0.370121C12.6817 0.369371 13.3602 0.471892 14.0119 0.674201L13.1522 3.56284Z" fill="#006E53"/>
<path id="Vector_2" d="M11.9559 9.10609C13.0792 9.10609 13.9899 8.19543 13.9899 7.07209C13.9899 5.94874 13.0792 5.03809 11.9559 5.03809C10.8325 5.03809 9.92188 5.94874 9.92188 7.07209C9.92188 8.19543 10.8325 9.10609 11.9559 9.10609Z" fill="#D6E806"/>
<path id="Vector_3" d="M15.4663 5.68545C15.1139 4.80334 14.4348 4.09124 13.5703 3.69753M16.7609 5.13057C16.2632 3.90716 15.3222 2.91662 14.1259 2.35689M18.0091 4.71465C17.3752 3.10179 16.1286 1.80544 14.5418 1.10889" stroke="#D6E806" stroke-width="0.462287" stroke-linecap="round"/>
</g>
</svg>
