<svg width="15" height="15" viewBox="0 0 15 15" fill="none" xmlns="http://www.w3.org/2000/svg">
<g id="vuesax/bulk/discount-shape">
<g id="discount-shape">
<path id="Vector" opacity="0.4" d="M3.19858 8.59465C3.19782 8.59391 3.19705 8.59317 3.19629 8.59243L2.99293 8.80393L3.20039 8.59646L3.19858 8.59465ZM12.1744 8.59646L12.3818 8.80393L6.13234 2.55447L6.33981 2.76193L7.23175 1.86998C7.48098 1.62074 7.89376 1.62074 8.143 1.86998L9.03495 2.76194C9.14643 2.87341 9.29588 2.96102 9.43958 3.0206C9.58312 3.08012 9.74986 3.12365 9.9055 3.12365H11.1671C11.5215 3.12365 11.8126 3.4148 11.8126 3.76916V5.03077C11.8126 5.18642 11.8562 5.35316 11.9157 5.4967C11.9753 5.6404 12.0629 5.78986 12.1743 5.90133L13.0663 6.79329C13.3155 7.04253 13.3155 7.4553 13.0663 7.70454L12.1744 8.59646Z" fill="#92ABFE" stroke="#92ABFE" stroke-width="0.586806"/>
<g id="Group">
<path id="Vector_2" d="M9.45205 9.5906C9.12344 9.5906 8.85938 9.32654 8.85938 9.0038C8.85938 8.68105 9.12344 8.41699 9.44618 8.41699C9.76892 8.41699 10.033 8.68105 10.033 9.0038C10.033 9.32654 9.7748 9.5906 9.45205 9.5906Z" fill="#92ABFE"/>
</g>
<g id="Group_2">
<path id="Vector_3" d="M5.93643 6.06961C5.60782 6.06961 5.34375 5.80554 5.34375 5.4828C5.34375 5.16006 5.60781 4.896 5.93056 4.896C6.2533 4.896 6.51736 5.16006 6.51736 5.4828C6.51736 5.80554 6.25917 6.06961 5.93643 6.06961Z" fill="#92ABFE"/>
</g>
<g id="Group_3">
<path id="Vector_4" d="M5.92301 9.44354C5.81152 9.44354 5.70003 9.40248 5.61201 9.31446C5.44183 9.14428 5.44183 8.86258 5.61201 8.69241L9.13284 5.17158C9.30301 5.0014 9.58468 5.0014 9.75485 5.17158C9.92502 5.34175 9.92502 5.62345 9.75485 5.79362L6.23402 9.31446C6.146 9.40248 6.0345 9.44354 5.92301 9.44354Z" fill="#92ABFE"/>
</g>
</g>
</g>
</svg>
